<?xml version="1.0" encoding="utf-8"?>
<!-- Generator: Adobe Illustrator 23.0.0, SVG Export Plug-In . SVG Version: 6.00 Build 0)  -->
<svg version="1.1" id="Logo" xmlns="http://www.w3.org/2000/svg" xmlns:xlink="http://www.w3.org/1999/xlink" x="0px" y="0px"
	 viewBox="0 0 375.26 141.22" style="enable-background:new 0 0 375.26 141.22;" xml:space="preserve">
<style type="text/css">
	.st0{fill:#2D2926;}
	.st1{fill:#004B87;}
</style>
<g>
	<path class="st0" d="M47.4,66.22h-6.12c-1.01,0-1.51-0.5-1.51-1.51V21.43c0-1.01,0.5-1.51,1.51-1.51h17.57
		c3.74,0,6.65,1.02,8.71,3.06c2.06,2.04,3.1,4.93,3.1,8.68v6.91c0,3.74-1.03,6.64-3.1,8.68c-2.06,2.04-4.97,3.06-8.71,3.06h-9.07
		c-0.58,0-0.86,0.26-0.86,0.79V64.7C48.91,65.71,48.41,66.22,47.4,66.22z M49.7,42.31h7.63c1.54,0,2.62-0.32,3.24-0.97
		c0.62-0.65,0.94-1.72,0.94-3.2v-6.05c0-1.54-0.31-2.63-0.94-3.28c-0.62-0.65-1.7-0.97-3.24-0.97H49.7c-0.53,0-0.79,0.26-0.79,0.79
		v12.89C48.91,42.05,49.17,42.31,49.7,42.31z"/>
	<path class="st0" d="M81.45,66.22h-6.12c-1.01,0-1.51-0.5-1.51-1.51v-33.7c0-1.01,0.5-1.51,1.51-1.51h6.12
		c1.01,0,1.51,0.5,1.51,1.51v2.45h0.29c0.53-1.3,1.46-2.28,2.81-2.95c1.34-0.67,2.76-1.01,4.25-1.01h2.59c0.96,0,1.44,0.5,1.44,1.51
		v4.97c0,0.58-0.11,0.97-0.32,1.19c-0.22,0.22-0.59,0.3-1.12,0.25h-4.97c-3.31,0-4.97,1.87-4.97,5.62V64.7
		C82.97,65.71,82.46,66.22,81.45,66.22z"/>
	<path class="st0" d="M97.37,23.3v-6.26c0-0.96,0.48-1.44,1.44-1.44h6.26c0.96,0,1.44,0.46,1.44,1.37v6.34
		c0,0.96-0.48,1.44-1.44,1.44h-6.26C97.85,24.74,97.37,24.27,97.37,23.3z M97.37,64.7v-33.7c0-1.01,0.48-1.51,1.44-1.51H105
		c1.01,0,1.51,0.5,1.51,1.51v33.7c0,0.62-0.11,1.03-0.32,1.22c-0.22,0.19-0.59,0.29-1.12,0.29h-6.19
		C97.87,66.22,97.37,65.71,97.37,64.7z"/>
	<path class="st0" d="M111.26,29.5h6.34c0.96,0,1.54,0.5,1.73,1.51l6.19,27.07h0.5l6.05-27.07c0.19-1.01,0.79-1.51,1.8-1.51h6.34
		c1.01,0,1.37,0.5,1.08,1.51l-9.07,33.62c-0.19,1.06-0.84,1.58-1.94,1.58h-9.14c-1.01,0-1.66-0.53-1.94-1.58l-9-33.62
		C109.89,30,110.25,29.5,111.26,29.5z"/>
	<path class="st0" d="M156.04,66.22h-1.73c-3.79,0-6.72-1.01-8.78-3.02c-2.06-2.02-3.1-4.92-3.1-8.71V41.23
		c0-3.79,1.03-6.7,3.1-8.71c2.06-2.02,4.99-3.02,8.78-3.02h16.63c1.06,0,1.58,0.5,1.58,1.51v33.7c0,1.01-0.53,1.51-1.58,1.51h-6.05
		c-1.01,0-1.51-0.5-1.51-1.51v-2.38h-0.29c-0.53,1.3-1.46,2.27-2.81,2.92S157.53,66.22,156.04,66.22z M163.39,52.82V38.21
		c0-0.53-0.29-0.79-0.86-0.79h-6.77c-1.54,0-2.62,0.32-3.24,0.97c-0.62,0.65-0.94,1.74-0.94,3.28v12.38c0,1.54,0.31,2.63,0.94,3.28
		c0.62,0.65,1.7,0.97,3.24,0.97h2.66C161.73,58.3,163.39,56.47,163.39,52.82z"/>
	<path class="st0" d="M179.3,37.42h-2.88c-0.58,0-0.97-0.1-1.19-0.29c-0.22-0.19-0.32-0.58-0.32-1.15v-4.97
		c0-1.01,0.5-1.51,1.51-1.51h2.88c0.53,0,0.79-0.26,0.79-0.79v-6.84c0-1.01,0.53-1.51,1.58-1.51h6.05c1.01,0,1.51,0.5,1.51,1.51
		v6.84c0,0.53,0.29,0.79,0.86,0.79h5.62c1.01,0,1.51,0.5,1.51,1.51v4.97c0,0.53-0.11,0.9-0.32,1.12c-0.22,0.22-0.61,0.32-1.19,0.32
		h-5.62c-0.58,0-0.86,0.26-0.86,0.79v15.91c0,1.49,0.33,2.56,1.01,3.2c0.67,0.65,1.78,0.97,3.31,0.97h2.88
		c1.01,0,1.51,0.5,1.51,1.51v4.97c0,0.53-0.11,0.9-0.32,1.12c-0.22,0.22-0.61,0.32-1.19,0.32h-4.39c-3.79,0-6.73-1.01-8.82-3.02
		s-3.13-4.9-3.13-8.64V38.21C180.09,37.68,179.83,37.42,179.3,37.42z"/>
	<path class="st0" d="M229.05,66.22h-15.91c-3.79,0-6.72-1.01-8.78-3.02c-2.06-2.02-3.1-4.92-3.1-8.71V41.23
		c0-3.79,1.03-6.7,3.1-8.71c2.06-2.02,4.99-3.02,8.78-3.02h5.69c3.79,0,6.72,1.01,8.78,3.02c2.06,2.02,3.1,4.92,3.1,8.71v9.14
		c0,1.01-0.5,1.51-1.51,1.51h-18.07c-0.57,0-0.86,0.26-0.86,0.79v1.58c0,1.49,0.32,2.56,0.97,3.2c0.65,0.65,1.74,0.97,3.28,0.97
		h14.54c1.01,0,1.51,0.53,1.51,1.58v4.75c0,0.53-0.11,0.9-0.32,1.12C230.02,66.11,229.63,66.22,229.05,66.22z M211.12,45.77h9.79
		c0.53,0,0.79-0.26,0.79-0.79v-3.46c0-1.54-0.31-2.62-0.94-3.24c-0.62-0.62-1.7-0.94-3.24-0.94h-3.02c-1.54,0-2.62,0.31-3.24,0.94
		c-0.62,0.62-0.94,1.7-0.94,3.24v3.46C210.33,45.51,210.6,45.77,211.12,45.77z"/>
	<path class="st0" d="M250.22,64.7V21.43c0-1.01,0.5-1.51,1.51-1.51h17.78c3.74,0,6.66,1.02,8.75,3.06
		c2.09,2.04,3.13,4.93,3.13,8.68v22.82c0,3.74-1.04,6.64-3.13,8.68c-2.09,2.04-5,3.06-8.75,3.06h-17.78
		C250.72,66.22,250.22,65.71,250.22,64.7z M260.15,58.3H268c1.54,0,2.63-0.32,3.28-0.97c0.65-0.65,0.97-1.74,0.97-3.28V32.09
		c0-1.54-0.32-2.63-0.97-3.28c-0.65-0.65-1.74-0.97-3.28-0.97h-7.85c-0.53,0-0.79,0.26-0.79,0.79v28.87
		C259.36,58.03,259.62,58.3,260.15,58.3z"/>
	<path class="st0" d="M313,66.22h-15.91c-3.79,0-6.72-1.01-8.78-3.02c-2.06-2.02-3.1-4.92-3.1-8.71V41.23c0-3.79,1.03-6.7,3.1-8.71
		c2.06-2.02,4.99-3.02,8.78-3.02h5.69c3.79,0,6.72,1.01,8.78,3.02c2.06,2.02,3.1,4.92,3.1,8.71v9.14c0,1.01-0.5,1.51-1.51,1.51
		h-18.07c-0.58,0-0.86,0.26-0.86,0.79v1.58c0,1.49,0.32,2.56,0.97,3.2c0.65,0.65,1.74,0.97,3.28,0.97H313
		c1.01,0,1.51,0.53,1.51,1.58v4.75c0,0.53-0.11,0.9-0.32,1.12C313.97,66.11,313.58,66.22,313,66.22z M295.07,45.77h9.79
		c0.53,0,0.79-0.26,0.79-0.79v-3.46c0-1.54-0.31-2.62-0.94-3.24c-0.62-0.62-1.7-0.94-3.24-0.94h-3.02c-1.54,0-2.62,0.31-3.24,0.94
		c-0.62,0.62-0.94,1.7-0.94,3.24v3.46C294.28,45.51,294.54,45.77,295.07,45.77z"/>
	<path class="st0" d="M319.55,64.7V17.11c0-1.01,0.5-1.51,1.51-1.51h6.12c1.01,0,1.51,0.5,1.51,1.51v16.2h0.29
		c0.53-1.3,1.46-2.28,2.81-2.95c1.34-0.67,2.76-1.01,4.25-1.01h2.3c3.79,0,6.72,1.01,8.78,3.02c2.06,2.02,3.1,4.92,3.1,8.71v13.39
		c0,3.79-1.03,6.7-3.1,8.71c-2.06,2.02-4.99,3.02-8.78,3.02h-17.28C320.06,66.22,319.55,65.71,319.55,64.7z M329.49,58.3h7.34
		c1.54,0,2.63-0.32,3.28-0.97c0.65-0.65,0.97-1.74,0.97-3.28V41.52c0-1.54-0.32-2.63-0.97-3.28c-0.65-0.65-1.74-0.97-3.28-0.97
		h-3.17c-3.31,0-4.97,1.82-4.97,5.47v14.76C328.7,58.03,328.96,58.3,329.49,58.3z"/>
	<path class="st0" d="M356.27,37.42h-2.88c-0.58,0-0.97-0.1-1.19-0.29c-0.22-0.19-0.32-0.58-0.32-1.15v-4.97
		c0-1.01,0.5-1.51,1.51-1.51h2.88c0.53,0,0.79-0.26,0.79-0.79v-6.84c0-1.01,0.53-1.51,1.58-1.51h6.05c1.01,0,1.51,0.5,1.51,1.51
		v6.84c0,0.53,0.29,0.79,0.86,0.79h5.62c1.01,0,1.51,0.5,1.51,1.51v4.97c0,0.53-0.11,0.9-0.32,1.12c-0.22,0.22-0.61,0.32-1.19,0.32
		h-5.62c-0.58,0-0.86,0.26-0.86,0.79v15.91c0,1.49,0.33,2.56,1.01,3.2c0.67,0.65,1.78,0.97,3.31,0.97h2.88
		c1.01,0,1.51,0.5,1.51,1.51v4.97c0,0.53-0.11,0.9-0.32,1.12c-0.22,0.22-0.61,0.32-1.19,0.32h-4.39c-3.79,0-6.73-1.01-8.82-3.02
		s-3.13-4.9-3.13-8.64V38.21C357.06,37.68,356.8,37.42,356.27,37.42z"/>
	<path class="st0" d="M49.27,76.43v43.27c0,1.01-0.5,1.51-1.51,1.51h-6.12c-1.01,0-1.51-0.5-1.51-1.51V76.43
		c0-1.01,0.5-1.51,1.51-1.51h6.12C48.77,74.92,49.27,75.43,49.27,76.43z"/>
	<path class="st0" d="M62.59,121.22h-6.12c-1.01,0-1.51-0.5-1.51-1.51v-33.7c0-1.01,0.5-1.51,1.51-1.51h6.12
		c1.01,0,1.51,0.5,1.51,1.51v2.38h0.29c1.06-2.59,3.41-3.89,7.06-3.89h2.3c7.54,0,11.3,3.91,11.3,11.74v23.47
		c0,1.01-0.53,1.51-1.58,1.51h-6.05c-1.01,0-1.51-0.5-1.51-1.51V96.67c0-1.54-0.32-2.63-0.97-3.28c-0.65-0.65-1.74-0.97-3.28-0.97
		h-2.59c-3.31,0-4.97,1.82-4.97,5.47v21.82C64.1,120.71,63.6,121.22,62.59,121.22z"/>
	<path class="st0" d="M88.44,84.5h6.34c0.96,0,1.54,0.5,1.73,1.51l6.19,27.07h0.5l6.05-27.07c0.19-1.01,0.79-1.51,1.8-1.51h6.34
		c1.01,0,1.37,0.5,1.08,1.51l-9.07,33.62c-0.19,1.06-0.84,1.58-1.94,1.58H98.3c-1.01,0-1.66-0.53-1.94-1.58l-9-33.62
		C87.07,85,87.43,84.5,88.44,84.5z"/>
	<path class="st0" d="M148.2,121.22h-15.91c-3.79,0-6.72-1.01-8.78-3.02c-2.06-2.02-3.1-4.92-3.1-8.71V96.23
		c0-3.79,1.03-6.7,3.1-8.71c2.06-2.02,4.99-3.02,8.78-3.02h5.69c3.79,0,6.72,1.01,8.78,3.02c2.06,2.02,3.1,4.92,3.1,8.71v9.14
		c0,1.01-0.5,1.51-1.51,1.51h-18.07c-0.58,0-0.86,0.26-0.86,0.79v1.58c0,1.49,0.32,2.56,0.97,3.2c0.65,0.65,1.74,0.97,3.28,0.97
		h14.54c1.01,0,1.51,0.53,1.51,1.58v4.75c0,0.53-0.11,0.9-0.32,1.12S148.77,121.22,148.2,121.22z M130.27,100.77h9.79
		c0.53,0,0.79-0.26,0.79-0.79v-3.46c0-1.54-0.31-2.62-0.94-3.24c-0.62-0.62-1.7-0.94-3.24-0.94h-3.02c-1.54,0-2.62,0.31-3.24,0.94
		c-0.62,0.62-0.94,1.71-0.94,3.24v3.46C129.48,100.51,129.74,100.77,130.27,100.77z"/>
	<path class="st0" d="M168,121.22h-13.68c-0.96,0-1.44-0.5-1.44-1.51v-4.61c0-0.53,0.1-0.9,0.29-1.12c0.19-0.22,0.58-0.32,1.15-0.32
		h12.02c2.35,0,3.53-0.72,3.53-2.16v-0.36c0-1.15-0.98-2.26-2.95-3.31l-7.13-3.96c-2.45-1.25-4.25-2.59-5.4-4.03
		c-1.15-1.44-1.73-3.29-1.73-5.54c0-3.36,0.89-5.83,2.66-7.42c1.78-1.58,4.56-2.38,8.35-2.38h12.02c0.96,0,1.44,0.5,1.44,1.51v4.68
		c0,0.53-0.1,0.9-0.29,1.12c-0.19,0.22-0.58,0.32-1.15,0.32h-10.01c-2.35,0-3.53,0.6-3.53,1.8v0.36c0,1.06,1.03,2.14,3.1,3.24
		l7.27,4.32c2.5,1.34,4.25,2.72,5.26,4.14c1.01,1.42,1.51,3.28,1.51,5.58C179.3,118,175.53,121.22,168,121.22z"/>
	<path class="st0" d="M183.84,92.42h-2.88c-0.58,0-0.97-0.1-1.19-0.29c-0.22-0.19-0.32-0.58-0.32-1.15v-4.97
		c0-1.01,0.5-1.51,1.51-1.51h2.88c0.53,0,0.79-0.26,0.79-0.79v-6.84c0-1.01,0.53-1.51,1.58-1.51h6.05c1.01,0,1.51,0.5,1.51,1.51
		v6.84c0,0.53,0.29,0.79,0.86,0.79h5.62c1.01,0,1.51,0.5,1.51,1.51v4.97c0,0.53-0.11,0.9-0.32,1.12c-0.22,0.22-0.61,0.32-1.19,0.32
		h-5.62c-0.58,0-0.86,0.26-0.86,0.79v15.91c0,1.49,0.33,2.56,1.01,3.2c0.67,0.65,1.78,0.97,3.31,0.97h2.88
		c1.01,0,1.51,0.5,1.51,1.51v4.97c0,0.53-0.11,0.9-0.32,1.12s-0.61,0.32-1.19,0.32h-4.39c-3.79,0-6.73-1.01-8.82-3.02
		c-2.09-2.02-3.13-4.9-3.13-8.64V93.21C184.63,92.68,184.36,92.42,183.84,92.42z"/>
	<path class="st0" d="M223.43,121.22h-6.41c-3.79,0-6.72-1.01-8.78-3.02c-2.06-2.02-3.1-4.92-3.1-8.71V96.23
		c0-3.79,1.03-6.7,3.1-8.71c2.06-2.02,4.99-3.02,8.78-3.02h6.41c3.74,0,6.66,1.02,8.75,3.06c2.09,2.04,3.13,4.93,3.13,8.68v13.25
		c0,3.74-1.04,6.64-3.13,8.68C230.09,120.2,227.18,121.22,223.43,121.22z M218.39,113.37h3.67c1.54,0,2.63-0.31,3.28-0.94
		c0.65-0.62,0.97-1.7,0.97-3.24V96.52c0-1.54-0.32-2.62-0.97-3.24c-0.65-0.62-1.74-0.94-3.28-0.94h-3.67
		c-1.54,0-2.62,0.31-3.24,0.94c-0.62,0.62-0.94,1.71-0.94,3.24v12.67c0,1.54,0.31,2.62,0.94,3.24
		C215.78,113.06,216.86,113.37,218.39,113.37z"/>
	<path class="st0" d="M247.55,121.22h-6.12c-1.01,0-1.51-0.5-1.51-1.51v-33.7c0-1.01,0.5-1.51,1.51-1.51h6.12
		c1.01,0,1.51,0.5,1.51,1.51v2.45h0.29c0.53-1.3,1.46-2.28,2.81-2.95c1.34-0.67,2.76-1.01,4.25-1.01H259c0.96,0,1.44,0.5,1.44,1.51
		v4.97c0,0.58-0.11,0.97-0.32,1.19c-0.22,0.22-0.59,0.3-1.12,0.25h-4.97c-3.31,0-4.97,1.87-4.97,5.62v21.67
		C249.07,120.71,248.56,121.22,247.55,121.22z"/>
</g>
<rect class="st1" width="19.84" height="141.22"/>
</svg>
