<?xml version="1.0" encoding="UTF-8"?>
<svg id="Ebene_1" xmlns="http://www.w3.org/2000/svg" version="1.1" viewBox="0 0 2755.21 836.4">
    <!-- Generator: Adobe Illustrator 30.1.0, SVG Export Plug-In . SVG Version: 2.1.1 Build 136)  -->
    <rect width="838.54" height="836.4" rx="62.13" ry="62.13" fill="#ef7f24"/>
    <path d="M292.07,506.81c0,25.45-4.87,46.7-14.6,63.75-9.74,17.06-23.83,29.89-42.27,38.5-18.45,8.6-40.66,12.9-66.63,12.9h-64v-225.98h70.96c23.69,0,44.25,4.2,61.67,12.6,17.42,8.39,30.92,20.81,40.5,37.25,9.58,16.43,14.38,36.76,14.38,60.98h-.01ZM242.3,508.03c0-16.69-2.45-30.42-7.35-41.19-4.89-10.78-12.1-18.74-21.65-23.9-9.53-5.15-21.3-7.73-35.31-7.73h-25.5v147.17h20.56c23.39,0,40.78-6.23,52.17-18.71,11.39-12.47,17.08-31.02,17.08-55.65h0Z" fill="#fff"/>
    <path d="M522.82,395.97v146.23c0,15.56-3.43,29.6-10.27,42.13-6.85,12.52-17.2,22.43-31.06,29.75-13.86,7.31-31.31,10.96-52.33,10.96-29.89,0-52.67-7.63-68.33-22.88-15.66-15.25-23.48-35.44-23.48-60.58v-145.6h47.77v138.33c0,18.66,3.81,31.74,11.44,39.27,7.63,7.52,18.9,11.27,33.83,11.27,10.51,0,19.04-1.8,25.58-5.4,6.55-3.61,11.38-9.17,14.46-16.69,3.09-7.53,4.65-17.11,4.65-28.77v-138.02h47.75,0Z" fill="#fff"/>
    <path d="M578.15,395.97h70.33c30.08,0,52.85,4.23,68.31,12.69,15.46,8.45,23.19,23.28,23.19,44.5,0,8.56-1.37,16.29-4.1,23.19-2.72,6.91-6.66,12.57-11.81,17-5.16,4.43-11.44,7.32-18.85,8.67v1.54c7.53,1.54,14.32,4.2,20.4,7.96,6.08,3.77,10.95,9.23,14.6,16.4,3.67,7.16,5.5,16.66,5.5,28.5,0,13.71-3.35,25.46-10.06,35.25-6.7,9.79-16.25,17.29-28.67,22.5-12.42,5.2-27.18,7.79-44.27,7.79h-84.56v-225.98h-.01ZM626.06,485.47h27.83c13.9,0,23.53-2.19,28.9-6.56,5.36-4.39,8.04-10.86,8.04-19.42s-3.18-14.86-9.52-18.63c-6.33-3.76-16.35-5.65-30.04-5.65h-25.21v50.25h0ZM626.06,523.49v58.9h31.23c14.43,0,24.48-2.78,30.15-8.35,5.67-5.57,8.5-13.04,8.5-22.42,0-5.55-1.24-10.44-3.71-14.67-2.47-4.23-6.63-7.53-12.46-9.9-5.82-2.38-13.83-3.56-24.02-3.56h-29.69,0Z" fill="#fff"/>
    <path d="M377,770.71v-94.14l21.03.14,26.36,79.4h.13l26.04-79.53h21.09v94.14h-12.47v-80.94h-.26l-27.27,80.94h-14.53l-27.39-80.94h-.26v80.94h-12.48,0Z" fill="#fff"/>
    <path d="M499.55,770.71v-94.14h34.21c8.15,0,14.79,2.26,19.93,6.76,5.14,4.51,7.72,10.65,7.72,18.42,0,9.36-4.95,16.29-14.85,20.8v.19c5.66.99,10.21,3.32,13.66,6.99,3.45,3.67,5.18,8.44,5.18,14.32,0,8.63-2.86,15.23-8.58,19.8s-13.67,6.86-23.82,6.86h-33.45ZM512.03,717.71h19.36c5.53,0,9.83-1.36,12.92-4.09s4.63-6.69,4.63-11.88c0-9.74-5.85-14.61-17.55-14.61h-19.36v30.58ZM512.03,760.15h23.08c5.32,0,9.6-1.43,12.86-4.29,3.26-2.85,4.89-6.79,4.89-11.82s-1.63-8.8-4.89-11.59-7.54-4.19-12.86-4.19h-23.08v31.88h0Z" fill="#fff"/>
    <path d="M648.47,676.57v10.56h-46.1v30.46h43.34v10.49h-43.34v32.07h46.49v10.56h-58.96v-94.14h58.58-.01Z" fill="#fff"/>
    <path d="M673.67,770.71v-94.14h33.69c10.29,0,18.17,2.52,23.66,7.53,5.48,5.03,8.23,11.42,8.23,19.19,0,6.4-1.88,11.75-5.63,16.07-3.76,4.31-8.44,7.14-14.05,8.47,1.8.47,3.4,1.16,4.79,2.06,1.4.9,2.57,1.91,3.54,3.03.97,1.11,1.89,2.58,2.77,4.41.88,1.82,1.61,3.58,2.22,5.28.6,1.7,1.31,3.9,2.12,6.6,1.37,4.59,2.65,8.37,3.83,11.33s2.62,5.92,4.34,8.89v1.29h-13.31c-1.24-2.53-2.89-6.77-4.92-12.72-2.04-5.94-3.16-9.22-3.38-9.82-.73-2.02-1.42-3.71-2.09-5.09-.66-1.37-1.52-2.8-2.57-4.28s-2.17-2.66-3.38-3.54c-1.2-.88-2.69-1.61-4.47-2.19-1.78-.58-3.76-.87-5.95-.87h-16.97v38.51h-12.47ZM686.14,721.64h20.71c6.47,0,11.38-1.63,14.72-4.89,3.34-3.26,5.02-7.75,5.02-13.46,0-4.77-1.59-8.65-4.76-11.66s-8.44-4.51-15.82-4.51h-19.87v34.51h0Z" fill="#fff"/>
    <path d="M326.31,676.08h-15.63l-35.05,94.14h12.93l10.34-27.56h39.3l10.21,27.56h12.93l-35.03-94.14h0ZM302.64,732.35l15.61-45.08h.45l15.77,45.08h-31.83Z" fill="#fff"/>
    <path d="M293.35,676.08l-35.05,94.13h-12.65l35.05-94.13h12.65Z" fill="#fff"/>
    <path d="M1104.58,471.04c0,15.95-2.97,29.27-8.92,39.96-5.95,10.68-14.56,18.72-25.85,24.1-11.29,5.39-24.92,8.08-40.88,8.08h-39.31v-141.56h43.58c14.65,0,27.3,2.64,37.96,7.9,10.65,5.25,18.88,13.03,24.69,23.33,5.82,10.29,8.73,23.02,8.73,38.19h0ZM1080.37,471.72c0-11.63-1.83-21.18-5.48-28.67-3.66-7.48-9.02-13.05-16.08-16.69-7.07-3.65-15.77-5.48-26.08-5.48h-19.85v102.83h16.46c17.11,0,29.9-4.35,38.35-13.06,8.46-8.72,12.69-21.7,12.69-38.94h-.01Z" fill="#0a2340"/>
    <path d="M1171.74,433.95c9.54,0,17.73,1.97,24.58,5.92,6.84,3.93,12.11,9.52,15.79,16.75,3.68,7.22,5.52,15.87,5.52,25.94v12.21h-71.56c.25,10.39,3.03,18.4,8.35,24.02,5.33,5.61,12.81,8.42,22.44,8.42,6.84,0,12.99-.66,18.44-1.98,5.46-1.32,11.09-3.27,16.9-5.85v18.48c-5.35,2.53-10.8,4.37-16.35,5.52-5.56,1.17-12.21,1.75-19.96,1.75-10.52,0-19.76-2.05-27.73-6.15-7.97-4.09-14.2-10.21-18.69-18.35-4.49-8.14-6.73-18.24-6.73-30.31s2.03-22.19,6.08-30.58c4.07-8.4,9.78-14.8,17.15-19.19,7.36-4.39,15.95-6.58,25.77-6.58v-.02ZM1171.74,451.1c-7.17,0-12.97,2.33-17.4,6.98-4.42,4.64-7.02,11.45-7.79,20.42h48.81c-.07-5.36-.96-10.1-2.67-14.23-1.71-4.14-4.29-7.36-7.75-9.69-3.46-2.32-7.86-3.48-13.21-3.48h.01Z" fill="#0a2340"/>
    <path d="M1333.12,435.99v107.19h-17.92l-3.08-14.44h-1.27c-2.27,3.68-5.14,6.74-8.63,9.17-3.49,2.42-7.36,4.22-11.63,5.42-4.25,1.19-8.73,1.79-13.44,1.79-8.07,0-14.97-1.37-20.69-4.1-5.71-2.75-10.08-6.99-13.13-12.73-3.03-5.75-4.54-13.18-4.54-22.29v-70h22.85v65.75c0,8.32,1.69,14.55,5.08,18.69,3.39,4.13,8.67,6.19,15.83,6.19s12.39-1.42,16.46-4.25c4.07-2.84,6.96-7.04,8.67-12.58,1.71-5.55,2.56-12.36,2.56-20.44v-53.35h22.85l.03-.02Z" fill="#0a2340"/>
    <path d="M1401.94,526.72c2.97,0,5.91-.27,8.81-.81,2.9-.55,5.55-1.22,7.94-2v17.23c-2.52,1.1-5.78,2.04-9.79,2.81-4,.78-8.16,1.17-12.48,1.17-6.07,0-11.53-1.02-16.38-3.04-4.83-2.04-8.68-5.55-11.52-10.52-2.83-4.97-4.25-11.84-4.25-20.63v-57.6h-14.63v-10.17l15.69-8.04,7.46-22.96h14.33v23.83h30.69v17.33h-30.69v57.31c0,5.43,1.35,9.47,4.06,12.13,2.71,2.64,6.29,3.96,10.75,3.96h.01Z" fill="#0a2340"/>
    <path d="M1508.92,512.58c0,7.04-1.72,12.99-5.15,17.83-3.42,4.83-8.41,8.49-14.96,10.98-6.54,2.48-14.56,3.73-24.06,3.73-7.49,0-13.93-.54-19.31-1.6-5.39-1.05-10.47-2.68-15.25-4.88v-19.67c5.09,2.39,10.82,4.46,17.19,6.21,6.36,1.74,12.38,2.6,18.06,2.6,7.48,0,12.88-1.17,16.17-3.52,3.29-2.36,4.94-5.51,4.94-9.46,0-2.32-.66-4.4-1.98-6.23-1.32-1.84-3.77-3.76-7.35-5.73s-8.83-4.34-15.75-7.1c-6.78-2.72-12.49-5.44-17.15-8.15-4.64-2.71-8.16-5.98-10.54-9.81-2.39-3.84-3.58-8.78-3.58-14.79,0-9.48,3.76-16.69,11.27-21.63,7.53-4.94,17.49-7.42,29.9-7.42,6.58,0,12.79.67,18.63,2,5.84,1.32,11.57,3.24,17.19,5.75l-7.17,17.15c-4.83-2.14-9.69-3.9-14.56-5.29-4.88-1.39-9.83-2.08-14.88-2.08-5.88,0-10.35.91-13.42,2.73-3.06,1.81-4.58,4.39-4.58,7.73,0,2.53.74,4.67,2.23,6.42,1.48,1.74,4.05,3.48,7.69,5.23,3.65,1.74,8.73,3.9,15.25,6.48,6.39,2.45,11.92,5.01,16.6,7.69,4.68,2.68,8.28,5.96,10.79,9.83,2.53,3.88,3.79,8.88,3.79,15h0Z" fill="#0a2340"/>
    <path d="M1573,545.12c-10.14,0-18.93-1.96-26.35-5.9-7.42-3.94-13.13-9.98-17.13-18.1-4-8.14-6-18.47-6-31s2.19-23.69,6.58-31.96c4.39-8.26,10.47-14.36,18.25-18.29,7.78-3.94,16.7-5.92,26.77-5.92,6.39,0,12.18.64,17.38,1.9,5.21,1.25,9.61,2.79,13.23,4.6l-6.79,18.19c-3.93-1.61-7.97-2.96-12.1-4.06-4.13-1.09-8.09-1.65-11.9-1.65-6.27,0-11.48,1.39-15.65,4.17s-7.27,6.91-9.29,12.4c-2.03,5.49-3.04,12.3-3.04,20.44s1.03,14.51,3.08,19.9c2.07,5.39,5.14,9.46,9.21,12.21,4.07,2.74,9.07,4.1,15,4.1s11.14-.71,15.79-2.13c4.65-1.43,9.04-3.27,13.17-5.52v19.75c-4.07,2.32-8.43,4.04-13.08,5.17-4.64,1.14-10.35,1.71-17.13,1.71h0Z" fill="#0a2340"/>
    <path d="M1647.43,392.51v37.85c0,3.95-.11,7.79-.33,11.54-.22,3.74-.47,6.64-.73,8.71h1.25c2.26-3.75,5.04-6.83,8.33-9.25,3.29-2.43,6.98-4.26,11.08-5.48,4.09-1.22,8.47-1.83,13.13-1.83,8.19,0,15.17,1.38,20.92,4.13,5.75,2.74,10.15,6.98,13.21,12.73,3.07,5.74,4.6,13.19,4.6,22.35v69.92h-22.75v-65.65c0-8.33-1.72-14.57-5.15-18.73-3.42-4.17-8.71-6.25-15.88-6.25s-12.38,1.44-16.42,4.31c-4.03,2.86-6.92,7.08-8.67,12.67-1.74,5.58-2.6,12.39-2.6,20.4v53.25h-22.75v-150.67h22.76Z" fill="#0a2340"/>
    <path d="M1789.75,433.95c9.54,0,17.73,1.97,24.58,5.92,6.84,3.93,12.11,9.52,15.79,16.75,3.68,7.22,5.52,15.87,5.52,25.94v12.21h-71.56c.25,10.39,3.03,18.4,8.35,24.02,5.33,5.61,12.81,8.42,22.44,8.42,6.84,0,12.99-.66,18.44-1.98,5.46-1.32,11.09-3.27,16.9-5.85v18.48c-5.35,2.53-10.8,4.37-16.35,5.52-5.56,1.17-12.21,1.75-19.96,1.75-10.52,0-19.76-2.05-27.73-6.15-7.97-4.09-14.2-10.21-18.69-18.35-4.49-8.14-6.73-18.24-6.73-30.31s2.03-22.19,6.08-30.58c4.07-8.4,9.78-14.8,17.15-19.19,7.36-4.39,15.95-6.58,25.77-6.58v-.02ZM1789.75,451.1c-7.17,0-12.97,2.33-17.4,6.98-4.42,4.64-7.02,11.45-7.79,20.42h48.81c-.07-5.36-.96-10.1-2.67-14.23-1.71-4.14-4.29-7.36-7.75-9.69-3.46-2.32-7.86-3.48-13.21-3.48h.01Z" fill="#0a2340"/>
    <path d="M1100.79,652.26v91.6c0,9.88-2.08,18.72-6.25,26.54-4.16,7.81-10.43,13.99-18.83,18.54-8.39,4.54-18.94,6.81-31.65,6.81-18.16,0-31.96-4.76-41.42-14.27-9.45-9.53-14.17-22.2-14.17-38.02v-91.21h23.23v89.17c0,11.82,2.78,20.54,8.33,26.17,5.55,5.61,13.84,8.42,24.88,8.42,7.63,0,13.84-1.34,18.65-4.02,4.8-2.68,8.35-6.61,10.65-11.81,2.29-5.19,3.44-11.47,3.44-18.83v-89.08h23.15-.01Z" fill="#0a2340"/>
    <path d="M1186.84,684.59c12.07,0,21.47,3.12,28.21,9.35,6.75,6.22,10.13,16.21,10.13,29.96v69.92h-22.75v-65.65c0-8.33-1.72-14.57-5.15-18.73-3.42-4.17-8.71-6.25-15.88-6.25-10.39,0-17.6,3.2-21.65,9.58-4.03,6.39-6.04,15.66-6.04,27.79v53.25h-22.75v-107.19h17.71l3.21,14.52h1.25c2.33-3.75,5.22-6.83,8.67-9.25,3.46-2.42,7.33-4.23,11.63-5.46,4.29-1.23,8.76-1.85,13.42-1.85h0Z" fill="#0a2340"/>
    <path d="M1293.22,777.36c2.97,0,5.91-.27,8.81-.81,2.9-.55,5.55-1.22,7.94-2v17.23c-2.52,1.1-5.78,2.04-9.79,2.81-4,.78-8.16,1.17-12.48,1.17-6.07,0-11.53-1.02-16.38-3.04-4.83-2.04-8.68-5.55-11.52-10.52-2.83-4.97-4.25-11.84-4.25-20.63v-57.6h-14.63v-10.17l15.69-8.04,7.46-22.96h14.33v23.83h30.69v17.33h-30.69v57.31c0,5.43,1.35,9.47,4.06,12.13,2.71,2.64,6.29,3.96,10.75,3.96h.01Z" fill="#0a2340"/>
    <path d="M1370.87,684.59c9.54,0,17.73,1.97,24.58,5.92,6.84,3.93,12.11,9.52,15.79,16.75,3.68,7.22,5.52,15.87,5.52,25.94v12.21h-71.56c.25,10.39,3.03,18.4,8.35,24.02,5.33,5.61,12.81,8.42,22.44,8.42,6.84,0,12.99-.66,18.44-1.98,5.46-1.32,11.09-3.27,16.9-5.85v18.48c-5.35,2.53-10.8,4.37-16.35,5.52-5.56,1.17-12.21,1.75-19.96,1.75-10.52,0-19.76-2.05-27.73-6.15-7.97-4.09-14.2-10.21-18.69-18.35-4.49-8.14-6.73-18.24-6.73-30.31s2.03-22.19,6.08-30.58c4.07-8.4,9.78-14.8,17.15-19.19,7.36-4.39,15.95-6.58,25.77-6.58v-.02ZM1370.87,701.74c-7.17,0-12.97,2.33-17.4,6.98-4.42,4.64-7.02,11.45-7.79,20.42h48.81c-.07-5.36-.96-10.1-2.67-14.23-1.71-4.14-4.29-7.36-7.75-9.69-3.46-2.32-7.86-3.48-13.21-3.48h.01Z" fill="#0a2340"/>
    <path d="M1493.12,684.59c1.8,0,3.77.1,5.9.29,2.14.2,3.98.45,5.54.77l-2.13,21.31c-1.36-.39-3.03-.68-5-.88-1.97-.19-3.73-.29-5.27-.29-4.07,0-7.95.67-11.63,2-3.68,1.32-6.95,3.32-9.79,6-2.83,2.67-5.06,6.01-6.67,10.02-1.61,4-2.42,8.65-2.42,13.94v56.06h-22.85v-107.19h17.81l3.1,18.88h1.06c2.13-3.8,4.77-7.29,7.94-10.46s6.8-5.7,10.9-7.6c4.09-1.9,8.59-2.85,13.5-2.85h.01Z" fill="#0a2340"/>
    <path d="M1576.68,684.59c12.07,0,21.47,3.12,28.21,9.35,6.75,6.22,10.13,16.21,10.13,29.96v69.92h-22.75v-65.65c0-8.33-1.72-14.57-5.15-18.73-3.42-4.17-8.71-6.25-15.88-6.25-10.39,0-17.6,3.2-21.65,9.58-4.03,6.39-6.04,15.66-6.04,27.79v53.25h-22.75v-107.19h17.71l3.21,14.52h1.25c2.33-3.75,5.22-6.83,8.67-9.25,3.46-2.42,7.33-4.23,11.63-5.46,4.29-1.23,8.76-1.85,13.42-1.85h0Z" fill="#0a2340"/>
    <path d="M1685.88,684.59c9.54,0,17.73,1.97,24.58,5.92,6.84,3.93,12.11,9.52,15.79,16.75,3.68,7.22,5.52,15.87,5.52,25.94v12.21h-71.56c.25,10.39,3.03,18.4,8.35,24.02,5.33,5.61,12.81,8.42,22.44,8.42,6.84,0,12.99-.66,18.44-1.98,5.46-1.32,11.09-3.27,16.9-5.85v18.48c-5.35,2.53-10.8,4.37-16.35,5.52-5.56,1.17-12.21,1.75-19.96,1.75-10.52,0-19.76-2.05-27.73-6.15-7.97-4.09-14.2-10.21-18.69-18.35-4.49-8.14-6.73-18.24-6.73-30.31s2.03-22.19,6.08-30.58c4.07-8.4,9.78-14.8,17.15-19.19,7.36-4.39,15.95-6.58,25.77-6.58v-.02ZM1685.88,701.74c-7.17,0-12.97,2.33-17.4,6.98-4.42,4.64-7.02,11.45-7.79,20.42h48.81c-.07-5.36-.96-10.1-2.67-14.23-1.71-4.14-4.29-7.36-7.75-9.69-3.46-2.32-7.86-3.48-13.21-3.48h.01Z" fill="#0a2340"/>
    <path d="M1776.57,643.15v37.85c0,3.95-.11,7.79-.33,11.54-.22,3.74-.47,6.64-.73,8.71h1.25c2.26-3.75,5.04-6.83,8.33-9.25,3.29-2.43,6.98-4.26,11.08-5.48,4.09-1.22,8.47-1.83,13.13-1.83,8.19,0,15.17,1.38,20.92,4.13,5.75,2.74,10.15,6.98,13.21,12.73,3.07,5.74,4.6,13.19,4.6,22.35v69.92h-22.75v-65.65c0-8.33-1.72-14.57-5.15-18.73-3.42-4.17-8.71-6.25-15.88-6.25s-12.38,1.44-16.42,4.31c-4.03,2.86-6.92,7.08-8.67,12.67-1.74,5.58-2.6,12.39-2.6,20.4v53.25h-22.75v-150.67h22.76Z" fill="#0a2340"/>
    <path d="M1997.31,684.59c12.01,0,21.07,3.1,27.17,9.31,6.09,6.2,9.15,16.14,9.15,29.81v70.1h-22.75v-66.04c0-8.14-1.58-14.27-4.75-18.4-3.16-4.13-7.96-6.19-14.42-6.19-9.04,0-15.55,2.89-19.52,8.67-3.97,5.78-5.96,14.16-5.96,25.13v56.83h-22.75v-66.04c0-5.42-.7-9.95-2.08-13.6-1.39-3.65-3.51-6.4-6.35-8.23-2.83-1.83-6.41-2.75-10.73-2.75-6.27,0-11.25,1.43-14.96,4.27-3.71,2.83-6.38,7.01-8,12.52-1.61,5.52-2.42,12.28-2.42,20.29v53.54h-22.75v-107.19h17.71l3.21,14.42h1.25c2.19-3.73,4.92-6.81,8.19-9.23,3.26-2.43,6.9-4.24,10.9-5.44,4-1.19,8.16-1.79,12.48-1.79,8.01,0,14.76,1.41,20.25,4.21,5.48,2.81,9.58,7.08,12.29,12.83h1.75c3.36-5.8,8.04-10.09,14.04-12.88,6-2.78,12.35-4.17,19.06-4.17v.02Z" fill="#0a2340"/>
    <path d="M2104.46,684.59c9.54,0,17.73,1.97,24.58,5.92,6.84,3.93,12.11,9.52,15.79,16.75,3.68,7.22,5.52,15.87,5.52,25.94v12.21h-71.56c.25,10.39,3.03,18.4,8.35,24.02,5.33,5.61,12.81,8.42,22.44,8.42,6.84,0,12.99-.66,18.44-1.98,5.46-1.32,11.09-3.27,16.9-5.85v18.48c-5.35,2.53-10.8,4.37-16.35,5.52-5.56,1.17-12.21,1.75-19.96,1.75-10.52,0-19.76-2.05-27.73-6.15-7.97-4.09-14.2-10.21-18.69-18.35-4.49-8.14-6.73-18.24-6.73-30.31s2.03-22.19,6.08-30.58c4.07-8.4,9.78-14.8,17.15-19.19,7.36-4.39,15.95-6.58,25.77-6.58v-.02ZM2104.46,701.74c-7.17,0-12.97,2.33-17.4,6.98-4.42,4.64-7.02,11.45-7.79,20.42h48.81c-.07-5.36-.96-10.1-2.67-14.23-1.71-4.14-4.29-7.36-7.75-9.69-3.46-2.32-7.86-3.48-13.21-3.48h0Z" fill="#0a2340"/>
    <path d="M2226.72,684.59c1.8,0,3.77.1,5.9.29,2.14.2,3.98.45,5.54.77l-2.13,21.31c-1.36-.39-3.03-.68-5-.88-1.97-.19-3.73-.29-5.27-.29-4.07,0-7.95.67-11.63,2-3.68,1.32-6.95,3.32-9.79,6-2.83,2.67-5.06,6.01-6.67,10.02-1.61,4-2.42,8.65-2.42,13.94v56.06h-22.85v-107.19h17.81l3.1,18.88h1.06c2.13-3.8,4.77-7.29,7.94-10.46s6.8-5.7,10.9-7.6c4.09-1.9,8.59-2.85,13.5-2.85h0Z" fill="#0a2340"/>
    <path d="M2277.15,643.15v36.31c0,4.2-.11,8.31-.33,12.35-.22,4.03-.43,7.18-.63,9.44h.96c2.9-4.65,6.95-8.57,12.15-11.77,5.21-3.19,11.88-4.79,20-4.79,12.72,0,22.95,4.67,30.69,14,7.75,9.32,11.63,23.11,11.63,41.38,0,12.14-1.78,22.34-5.33,30.6-3.54,8.27-8.53,14.52-14.96,18.75-6.42,4.22-13.95,6.33-22.6,6.33-8.13,0-14.7-1.5-19.71-4.5-5-3-8.92-6.5-11.75-10.5h-1.65l-4.17,13.06h-17.04v-150.67h22.75,0ZM2303.3,703.19c-6.46,0-11.58,1.29-15.35,3.88-3.78,2.57-6.51,6.43-8.19,11.56-1.67,5.13-2.54,11.63-2.6,19.5v2.04c0,11.95,1.89,21.08,5.67,27.42,3.78,6.32,10.67,9.48,20.67,9.48,7.94,0,14.05-3.21,18.31-9.63,4.26-6.43,6.4-15.65,6.4-27.67s-2.12-21.25-6.35-27.38c-4.22-6.14-10.41-9.21-18.54-9.21h-.02Z" fill="#0a2340"/>
    <path d="M2469.14,739.99c0,8.91-1.17,16.81-3.5,23.73-2.32,6.91-5.71,12.73-10.17,17.48-4.45,4.74-9.8,8.35-16.06,10.83-6.27,2.48-13.33,3.73-21.21,3.73-7.36,0-14.11-1.24-20.25-3.73-6.13-2.48-11.43-6.09-15.92-10.83-4.49-4.75-7.96-10.57-10.42-17.48-2.45-6.92-3.67-14.82-3.67-23.73,0-11.82,2.05-21.84,6.15-30.06,4.09-8.23,9.95-14.51,17.56-18.83,7.63-4.33,16.7-6.5,27.23-6.5,9.88,0,18.58,2.17,26.13,6.5,7.55,4.32,13.46,10.61,17.73,18.88,4.26,8.27,6.4,18.27,6.4,30.02h0ZM2391.39,739.99c0,7.81.95,14.49,2.85,20.04,1.9,5.56,4.85,9.81,8.85,12.75,4,2.93,9.17,4.4,15.5,4.4s11.48-1.46,15.48-4.4,6.94-7.19,8.81-12.75c1.88-5.55,2.81-12.23,2.81-20.04s-.94-14.45-2.81-19.9c-1.88-5.46-4.81-9.63-8.81-12.5s-9.2-4.31-15.58-4.31c-9.43,0-16.31,3.17-20.63,9.5-4.32,6.32-6.48,15.39-6.48,27.21h0ZM2388.29,658.26c0-3.88,1.06-6.7,3.19-8.48,2.14-1.78,4.76-2.67,7.85-2.67s5.76.89,7.98,2.67c2.23,1.78,3.35,4.6,3.35,8.48s-1.12,6.54-3.35,8.42c-2.22,1.88-4.89,2.81-7.98,2.81s-5.72-.94-7.85-2.81c-2.13-1.88-3.19-4.68-3.19-8.42ZM2426.35,658.26c0-3.88,1.07-6.7,3.23-8.48,2.17-1.78,4.8-2.67,7.9-2.67s5.76.89,7.98,2.67c2.23,1.78,3.35,4.6,3.35,8.48s-1.12,6.54-3.35,8.42c-2.22,1.88-4.89,2.81-7.98,2.81s-5.73-.94-7.9-2.81c-2.16-1.88-3.23-4.68-3.23-8.42Z" fill="#0a2340"/>
    <path d="M2545.99,684.59c1.8,0,3.77.1,5.9.29,2.14.2,3.98.45,5.54.77l-2.13,21.31c-1.36-.39-3.03-.68-5-.88-1.97-.19-3.73-.29-5.27-.29-4.07,0-7.95.67-11.63,2-3.68,1.32-6.95,3.32-9.79,6-2.83,2.67-5.06,6.01-6.67,10.02-1.61,4-2.42,8.65-2.42,13.94v56.06h-22.85v-107.19h17.81l3.1,18.88h1.06c2.13-3.8,4.77-7.29,7.94-10.46s6.8-5.7,10.9-7.6c4.09-1.9,8.59-2.85,13.5-2.85h0Z" fill="#0a2340"/>
    <path d="M2645.71,763.21c0,7.04-1.72,12.99-5.15,17.83-3.42,4.83-8.41,8.49-14.96,10.98-6.54,2.48-14.56,3.73-24.06,3.73-7.49,0-13.93-.54-19.31-1.6-5.39-1.05-10.47-2.68-15.25-4.88v-19.67c5.09,2.39,10.82,4.46,17.19,6.21,6.36,1.74,12.38,2.6,18.06,2.6,7.48,0,12.88-1.17,16.17-3.52,3.29-2.36,4.94-5.51,4.94-9.46,0-2.32-.66-4.4-1.98-6.23-1.32-1.84-3.77-3.76-7.35-5.73s-8.83-4.34-15.75-7.1c-6.78-2.72-12.49-5.44-17.15-8.15-4.64-2.71-8.16-5.98-10.54-9.81-2.39-3.84-3.58-8.78-3.58-14.79,0-9.48,3.76-16.69,11.27-21.63,7.53-4.94,17.49-7.42,29.9-7.42,6.58,0,12.79.67,18.63,2,5.84,1.32,11.57,3.24,17.19,5.75l-7.17,17.15c-4.83-2.14-9.69-3.9-14.56-5.29-4.88-1.39-9.83-2.08-14.88-2.08-5.88,0-10.35.91-13.42,2.73-3.06,1.81-4.58,4.39-4.58,7.73,0,2.53.74,4.67,2.23,6.42,1.48,1.74,4.05,3.48,7.69,5.23,3.65,1.74,8.73,3.9,15.25,6.48,6.39,2.45,11.92,5.01,16.6,7.69,4.68,2.68,8.28,5.96,10.79,9.83,2.53,3.88,3.79,8.88,3.79,15h0Z" fill="#0a2340"/>
    <path d="M2709.32,684.59c9.54,0,17.73,1.97,24.58,5.92,6.84,3.93,12.11,9.52,15.79,16.75,3.68,7.22,5.52,15.87,5.52,25.94v12.21h-71.56c.25,10.39,3.03,18.4,8.35,24.02,5.33,5.61,12.81,8.42,22.44,8.42,6.84,0,12.99-.66,18.44-1.98,5.46-1.32,11.09-3.27,16.9-5.85v18.48c-5.35,2.53-10.8,4.37-16.35,5.52-5.56,1.17-12.21,1.75-19.96,1.75-10.52,0-19.76-2.05-27.73-6.15-7.97-4.09-14.2-10.21-18.69-18.35-4.49-8.14-6.73-18.24-6.73-30.31s2.03-22.19,6.08-30.58c4.07-8.4,9.78-14.8,17.15-19.19,7.36-4.39,15.95-6.58,25.77-6.58v-.02ZM2709.32,701.74c-7.17,0-12.97,2.33-17.4,6.98-4.42,4.64-7.02,11.45-7.79,20.42h48.81c-.07-5.36-.96-10.1-2.67-14.23-1.71-4.14-4.29-7.36-7.75-9.69-3.46-2.32-7.86-3.48-13.21-3.48h0Z" fill="#0a2340"/>
    <path d="M138.97,701.3c6.22,0,11.64,1.45,16.25,4.33,4.63,2.89,8.21,6.97,10.75,12.25,2.54,5.27,3.81,11.39,3.81,18.38s-1.27,13.14-3.81,18.4c-2.54,5.27-6.15,9.39-10.81,12.38-4.67,2.97-10.1,4.46-16.31,4.46-3.89,0-7.35-.74-10.38-2.21-3.02-1.47-5.52-3.28-7.5-5.44-1.99-2.15-3.41-4.27-4.27-6.35h-.13v12.44h-13.46v-92.46h13.46v38.33h.13c.78-2.23,2.16-4.45,4.15-6.65,1.98-2.21,4.51-4.07,7.56-5.58,3.07-1.51,6.59-2.27,10.56-2.27h0ZM115.81,736.25c0,4.24.73,8.19,2.19,11.85,1.47,3.67,3.71,6.65,6.73,8.94,3.03,2.28,6.82,3.42,11.4,3.42,6.73,0,11.8-2.3,15.21-6.92,3.42-4.63,5.13-10.39,5.13-17.29s-1.73-12.61-5.19-17.15c-3.45-4.54-8.49-6.81-15.15-6.81-4.57,0-8.37,1.15-11.4,3.44-3.02,2.29-5.26,5.25-6.73,8.88-1.46,3.63-2.19,7.51-2.19,11.65h0Z" fill="#fff"/>
    <path d="M179.12,702.98c3.36,9.06,6.68,17.97,9.96,26.73,3.29,8.77,6.57,17.64,9.85,26.6h.25c2.76-8.54,5.67-17.32,8.73-26.33,3.07-9.03,6.07-18.03,9.02-27h14.1c-2.68,7.17-4.99,13.39-6.94,18.65-1.93,5.27-3.72,10.08-5.35,14.44-1.64,4.36-3.31,8.74-5,13.15-1.68,4.41-3.52,9.28-5.5,14.63-1.99,5.35-4.36,11.73-7.13,19.17-1.46,3.97-3.53,7.09-6.21,9.38-2.67,2.29-6.29,3.44-10.88,3.44h-10.23v-10.88h7.38c3.03,0,5.07-.72,6.15-2.15,1.08-1.42,2.05-3.29,2.92-5.63l2.21-5.56c-4.75-12.08-9.39-23.73-13.92-34.96-4.53-11.22-9.04-22.44-13.52-33.67h14.11Z" fill="#fff"/>
</svg>
